TITLE ""
FILE "Step2_Track55.mp3" MP3
  TRACK 01 AUDIO
    TITLE "Step2_Track55_01"
    INDEX 01 00:00:00
  TRACK 02 AUDIO
    TITLE "Step2_Track55_02"
    INDEX 01 00:00:24
  TRACK 03 AUDIO
    TITLE "Step2_Track55_03"
    INDEX 01 00:02:01
  TRACK 04 AUDIO
    TITLE "Step2_Track55_04"
    INDEX 01 00:02:66
  TRACK 05 AUDIO
    TITLE "Step2_Track55_05"
    INDEX 01 00:03:58
  TRACK 06 AUDIO
    TITLE "Step2_Track55_06"
    INDEX 01 00:04:06
  TRACK 07 AUDIO
    TITLE "Step2_Track55_07"
    INDEX 01 00:07:42
  TRACK 08 AUDIO
    TITLE "Step2_Track55_08"
    INDEX 01 00:07:71
  TRACK 09 AUDIO
    TITLE "Step2_Track55_09"
    INDEX 01 00:08:71
  TRACK 10 AUDIO
    TITLE "Step2_Track55_10"
    INDEX 01 00:09:03
  TRACK 11 AUDIO
    TITLE "Step2_Track55_11"
    INDEX 01 00:12:39
  TRACK 12 AUDIO
    TITLE "Step2_Track55_12"
    INDEX 01 00:12:74
  TRACK 13 AUDIO
    TITLE "Step2_Track55_13"
    INDEX 01 00:14:01
  TRACK 14 AUDIO
    TITLE "Step2_Track55_14"
    INDEX 01 00:14:16
  TRACK 15 AUDIO
    TITLE "Step2_Track55_15"
    INDEX 01 00:17:44
  TRACK 16 AUDIO
    TITLE "Step2_Track55_16"
    INDEX 01 00:18:02
  TRACK 17 AUDIO
    TITLE "Step2_Track55_17"
    INDEX 01 00:19:00
  TRACK 18 AUDIO
    TITLE "Step2_Track55_18"
    INDEX 01 00:19:21
  TRACK 19 AUDIO
    TITLE "Step2_Track55_19"
    INDEX 01 00:22:04
  TRACK 20 AUDIO
    TITLE "Step2_Track55_20"
    INDEX 01 00:22:59
  TRACK 21 AUDIO
    TITLE "Step2_Track55_21"
    INDEX 01 00:23:52
  TRACK 22 AUDIO
    TITLE "Step2_Track55_22"
    INDEX 01 00:23:72
  TRACK 23 AUDIO
    TITLE "Step2_Track55_23"
    INDEX 01 00:27:35
  TRACK 24 AUDIO
    TITLE "Step2_Track55_24"
    INDEX 01 00:27:60
  TRACK 25 AUDIO
    TITLE "Step2_Track55_25"
    INDEX 01 00:28:67
  TRACK 26 AUDIO
    TITLE "Step2_Track55_26"
    INDEX 01 00:29:06
  TRACK 27 AUDIO
    TITLE "Step2_Track55_27"
    INDEX 01 00:33:57
  TRACK 28 AUDIO
    TITLE "Step2_Track55_28"
    INDEX 01 00:34:21
  TRACK 29 AUDIO
    TITLE "Step2_Track55_29"
    INDEX 01 00:35:22
  TRACK 30 AUDIO
    TITLE "Step2_Track55_30"
    INDEX 01 00:35:42
  TRACK 31 AUDIO
    TITLE "Step2_Track55_31"
    INDEX 01 00:38:09
  TRACK 32 AUDIO
    TITLE "Step2_Track55_32"
    INDEX 01 00:38:44
  TRACK 33 AUDIO
    TITLE "Step2_Track55_33"
    INDEX 01 00:39:24
  TRACK 34 AUDIO
    TITLE "Step2_Track55_34"
    INDEX 01 00:39:55
  TRACK 35 AUDIO
    TITLE "Step2_Track55_35"
    INDEX 01 00:42:34
  TRACK 36 AUDIO
    TITLE "Step2_Track55_36"
    INDEX 01 00:42:56
  TRACK 37 AUDIO
    TITLE "Step2_Track55_37"
    INDEX 01 00:43:53
  TRACK 38 AUDIO
    TITLE "Step2_Track55_38"
    INDEX 01 00:43:65
  TRACK 39 AUDIO
    TITLE "Step2_Track55_39"
    INDEX 01 00:46:57
  TRACK 40 AUDIO
    TITLE "Step2_Track55_40"
    INDEX 01 00:47:06
  TRACK 41 AUDIO
    TITLE "Step2_Track55_41"
    INDEX 01 00:48:01
  TRACK 42 AUDIO
    TITLE "Step2_Track55_42"
    INDEX 01 00:48:03
  TRACK 43 AUDIO
    TITLE "Step2_Track55_43"
    INDEX 01 00:50:14
